<svg width="24" height="24" viewBox="0 0 24 24" fill="none" xmlns="http://www.w3.org/2000/svg">
<g id="Monotone add">
<path id="Vector" d="M20.2699 9.75649L20.2681 9.75739L20.2628 9.76277L12.7628 17.2628L12.7627 17.2628C12.6625 17.3633 12.5435 17.4431 12.4125 17.4975C12.2814 17.5519 12.1409 17.5799 11.999 17.5799C11.8571 17.5799 11.7166 17.5519 11.5856 17.4975C11.4545 17.4431 11.3355 17.3633 11.2353 17.2628L11.2353 17.2628L3.73529 9.76277C3.53274 9.56022 3.41895 9.2855 3.41895 8.99904C3.41895 8.71259 3.53274 8.43787 3.73529 8.23531C3.93785 8.03276 4.21257 7.91897 4.49902 7.91897C4.78548 7.91897 5.0602 8.03276 5.26275 8.23531L11.9668 14.9394L12 14.9725L12.0331 14.9394L18.7372 8.23438C18.9397 8.03182 19.2144 7.91803 19.5009 7.91803C19.7873 7.91803 20.0621 8.03182 20.2646 8.23438C20.4672 8.43693 20.581 8.71165 20.581 8.99811C20.581 9.28205 20.4692 9.55446 20.2699 9.75649Z" fill="#475569" stroke="#475569" stroke-width="0.09375"/>
</g>
</svg>
