<svg width="20" height="20" viewBox="0 0 20 20" fill="none" xmlns="http://www.w3.org/2000/svg">
<g id="X">
<path id="Vector" d="M16.2882 14.9617C16.4644 15.1378 16.5633 15.3767 16.5633 15.6258C16.5633 15.8749 16.4644 16.1137 16.2882 16.2899C16.1121 16.466 15.8733 16.5649 15.6242 16.5649C15.3751 16.5649 15.1362 16.466 14.9601 16.2899L9.99997 11.3281L5.03825 16.2883C4.86213 16.4644 4.62326 16.5634 4.37418 16.5634C4.12511 16.5634 3.88624 16.4644 3.71012 16.2883C3.534 16.1122 3.43506 15.8733 3.43506 15.6242C3.43506 15.3752 3.534 15.1363 3.71012 14.9602L8.67184 10L3.71168 5.03829C3.53556 4.86217 3.43662 4.6233 3.43662 4.37423C3.43662 4.12516 3.53556 3.88629 3.71168 3.71017C3.8878 3.53405 4.12668 3.4351 4.37575 3.4351C4.62482 3.4351 4.86369 3.53405 5.03981 3.71017L9.99997 8.67188L14.9617 3.70938C15.1378 3.53326 15.3767 3.43432 15.6257 3.43432C15.8748 3.43432 16.1137 3.53326 16.2898 3.70938C16.4659 3.8855 16.5649 4.12438 16.5649 4.37345C16.5649 4.62252 16.4659 4.86139 16.2898 5.03751L11.3281 10L16.2882 14.9617Z" fill="#94A3B8"/>
</g>
</svg>
